<svg width="164" height="156" viewBox="0 0 164 156" fill="none" xmlns="http://www.w3.org/2000/svg">
<path d="M75.4888 4.49639C77.8202 -1.41032 86.1798 -1.41031 88.5112 4.4964L106.749 50.7019C107.498 52.5999 109.038 54.0766 110.966 54.7453L158.936 71.3866C165.211 73.5633 165.211 82.4367 158.936 84.6134L110.966 101.255C109.038 101.923 107.498 103.4 106.749 105.298L88.5112 151.504C86.1798 157.41 77.8202 157.41 75.4888 151.504L57.2514 105.298C56.5023 103.4 54.9622 101.923 53.0345 101.255L5.06383 84.6134C-1.21055 82.4367 -1.21054 73.5633 5.06384 71.3866L53.0345 54.7453C54.9622 54.0766 56.5023 52.5999 57.2514 50.7019L75.4888 4.49639Z" fill="#C67345"/>
</svg>
